<svg aria-hidden="true" data-prefix="fal" data-icon="camera-security" class="svg-inline--fa fa-camera-security" xmlns="http://www.w3.org/2000/svg" viewBox="0 0 448 512"><path fill="currentColor" d="M384 32c17.7 0 32 14.3 32 32v288c0 17.7-14.3 32-32 32H64c-17.7 0-32-14.3-32-32V64c0-17.7 14.3-32 32-32h320zm-40.1 384H384c35.3 0 64-28.7 64-64V64c0-35.3-28.7-64-64-64H64C28.7 0 0 28.7 0 64v288c0 35.3 28.7 64 64 64h40.1l-36.5 59.4c-4.6 7.4-4.8 16.7-.5 24.3s12.3 12.3 21 12.3H360c8.7 0 16.7-4.7 21-12.3s4-16.9-.5-24.3L343.9 416zm-202.2 0h164.6l39.4 64H102.3l39.4-64zM224 304a96 96 0 1 1 0-192 96 96 0 1 1 0 192zM96 208a128 128 0 1 0 256 0 128 128 0 1 0-256 0z"/></svg>