<svg aria-hidden="true" data-prefix="fal" data-icon="network-wired" class="svg-inline--fa fa-network-wired" xmlns="http://www.w3.org/2000/svg" viewBox="0 0 640 512"><path fill="currentColor" d="M400 32c8.8 0 16 7.2 16 16v96c0 8.8-7.2 16-16 16H240c-8.8 0-16-7.2-16-16V48c0-8.8 7.2-16 16-16h160zm-64 160h64c26.5 0 48-21.5 48-48V48c0-26.5-21.5-48-48-48H240c-26.5 0-48 21.5-48 48v96c0 26.5 21.5 48 48 48h64v48H16c-8.8 0-16 7.2-16 16s7.2 16 16 16h128v48H80c-26.5 0-48 21.5-48 48v96c0 26.5 21.5 48 48 48h160c26.5 0 48-21.5 48-48v-96c0-26.5-21.5-48-48-48h-64v-48h288v48h-64c-26.5 0-48 21.5-48 48v96c0 26.5 21.5 48 48 48h160c26.5 0 48-21.5 48-48v-96c0-26.5-21.5-48-48-48h-64v-48h128c8.8 0 16-7.2 16-16s-7.2-16-16-16H336v-48zm160 160h64c8.8 0 16 7.2 16 16v96c0 8.8-7.2 16-16 16H400c-8.8 0-16-7.2-16-16v-96c0-8.8 7.2-16 16-16h96zm-320 0h64c8.8 0 16 7.2 16 16v96c0 8.8-7.2 16-16 16H80c-8.8 0-16-7.2-16-16v-96c0-8.8 7.2-16 16-16h96z"/></svg>